<mxfile host="app.diagrams.net" agent="Mozilla/5.0 (Windows NT 10.0; Win64; x64) AppleWebKit/537.36 (KHTML, like Gecko) Chrome/136.0.0.0 Safari/537.36" version="27.0.2">
  <diagram name="Page-1" id="2JSXmL6p8-Gj3dMH1wm7">
    <mxGraphModel dx="1281" dy="562" grid="1" gridSize="10" guides="1" tooltips="1" connect="1" arrows="1" fold="1" page="1" pageScale="1" pageWidth="1169" pageHeight="1654" math="0" shadow="0">
      <root>
        <mxCell id="0" />
        <mxCell id="1" parent="0" />
        <mxCell id="uRqw4r4FYVtMjygdQ8Fz-13" value="" style="endArrow=diamondThin;endFill=1;endSize=24;html=1;rounded=0;" parent="1" edge="1">
          <mxGeometry width="160" relative="1" as="geometry">
            <mxPoint x="668" y="240" as="sourcePoint" />
            <mxPoint x="525" y="240" as="targetPoint" />
            <Array as="points">
              <mxPoint x="510" y="240" />
            </Array>
          </mxGeometry>
        </mxCell>
        <mxCell id="uRqw4r4FYVtMjygdQ8Fz-14" value="0..*" style="text;whiteSpace=wrap;html=1;" parent="1" vertex="1">
          <mxGeometry x="554" y="218" width="20" height="30" as="geometry" />
        </mxCell>
        <mxCell id="uRqw4r4FYVtMjygdQ8Fz-15" value="1" style="text;whiteSpace=wrap;html=1;" parent="1" vertex="1">
          <mxGeometry x="642" y="218" width="26" height="30" as="geometry" />
        </mxCell>
        <mxCell id="uRqw4r4FYVtMjygdQ8Fz-17" value="1" style="text;html=1;align=center;verticalAlign=middle;resizable=0;points=[];autosize=1;strokeColor=none;fillColor=none;" parent="1" vertex="1">
          <mxGeometry x="400" y="428" width="30" height="30" as="geometry" />
        </mxCell>
        <mxCell id="uRqw4r4FYVtMjygdQ8Fz-18" value="0..*" style="text;html=1;align=center;verticalAlign=middle;resizable=0;points=[];autosize=1;strokeColor=none;fillColor=none;" parent="1" vertex="1">
          <mxGeometry x="400" y="310" width="40" height="30" as="geometry" />
        </mxCell>
        <mxCell id="uRqw4r4FYVtMjygdQ8Fz-19" value="&lt;font style=&quot;font-size: 14px;&quot;&gt;has&lt;/font&gt;" style="text;html=1;align=center;verticalAlign=middle;resizable=0;points=[];autosize=1;strokeColor=none;fillColor=none;" parent="1" vertex="1">
          <mxGeometry x="585" y="206" width="50" height="30" as="geometry" />
        </mxCell>
        <mxCell id="uRqw4r4FYVtMjygdQ8Fz-20" value="" style="endArrow=diamondThin;endFill=1;endSize=24;html=1;rounded=0;" parent="1" edge="1">
          <mxGeometry width="160" relative="1" as="geometry">
            <mxPoint x="440" y="302" as="sourcePoint" />
            <mxPoint x="380" y="453" as="targetPoint" />
            <Array as="points">
              <mxPoint x="440" y="453" />
            </Array>
          </mxGeometry>
        </mxCell>
        <mxCell id="uRqw4r4FYVtMjygdQ8Fz-21" value="&lt;font style=&quot;font-size: 18px;&quot;&gt;Add product Object diagram&lt;/font&gt;" style="text;align=center;fontStyle=1;verticalAlign=middle;spacingLeft=3;spacingRight=3;strokeColor=none;rotatable=0;points=[[0,0.5],[1,0.5]];portConstraint=eastwest;html=1;" parent="1" vertex="1">
          <mxGeometry x="480" width="260" height="90" as="geometry" />
        </mxCell>
        <mxCell id="uRqw4r4FYVtMjygdQ8Fz-22" value="&lt;font style=&quot;font-size: 18px;&quot;&gt;Prceonditions&lt;/font&gt;" style="text;html=1;align=center;verticalAlign=middle;resizable=0;points=[];autosize=1;strokeColor=none;fillColor=none;" parent="1" vertex="1">
          <mxGeometry x="545" y="73" width="130" height="40" as="geometry" />
        </mxCell>
        <mxCell id="uRqw4r4FYVtMjygdQ8Fz-23" value="&lt;font style=&quot;font-size: 14px;&quot;&gt;:product&lt;/font&gt;" style="swimlane;fontStyle=0;childLayout=stackLayout;horizontal=1;startSize=26;fillColor=none;horizontalStack=0;resizeParent=1;resizeParentMax=0;resizeLast=0;collapsible=1;marginBottom=0;whiteSpace=wrap;html=1;" parent="1" vertex="1">
          <mxGeometry x="340" y="200" width="160" height="100" as="geometry" />
        </mxCell>
        <mxCell id="uRqw4r4FYVtMjygdQ8Fz-24" value="&lt;font style=&quot;font-size: 14px;&quot;&gt;&lt;span style=&quot;text-wrap-mode: nowrap;&quot;&gt;ID= unset&lt;/span&gt;&lt;br style=&quot;padding: 0px; margin: 0px; text-wrap-mode: nowrap;&quot;&gt;&lt;span style=&quot;text-wrap-mode: nowrap;&quot;&gt;Name= &quot;&quot;&lt;/span&gt;&lt;br style=&quot;padding: 0px; margin: 0px; text-wrap-mode: nowrap;&quot;&gt;&lt;span style=&quot;text-wrap-mode: nowrap;&quot;&gt;Description= &quot;&quot;&lt;/span&gt;&lt;br style=&quot;padding: 0px; margin: 0px; text-wrap-mode: nowrap;&quot;&gt;&lt;span style=&quot;text-wrap-mode: nowrap;&quot;&gt;Photo: NULL&lt;/span&gt;&lt;/font&gt;" style="text;strokeColor=none;fillColor=none;align=left;verticalAlign=top;spacingLeft=4;spacingRight=4;overflow=hidden;rotatable=0;points=[[0,0.5],[1,0.5]];portConstraint=eastwest;whiteSpace=wrap;html=1;" parent="uRqw4r4FYVtMjygdQ8Fz-23" vertex="1">
          <mxGeometry y="26" width="160" height="74" as="geometry" />
        </mxCell>
        <mxCell id="uRqw4r4FYVtMjygdQ8Fz-28" value="&lt;font style=&quot;font-size: 14px;&quot;&gt;:User&lt;/font&gt;" style="swimlane;fontStyle=0;childLayout=stackLayout;horizontal=1;startSize=26;fillColor=none;horizontalStack=0;resizeParent=1;resizeParentMax=0;resizeLast=0;collapsible=1;marginBottom=0;whiteSpace=wrap;html=1;" parent="1" vertex="1">
          <mxGeometry x="230" y="400" width="150" height="120" as="geometry" />
        </mxCell>
        <mxCell id="uRqw4r4FYVtMjygdQ8Fz-29" value="&lt;span style=&quot;font-size: 14px; text-wrap-mode: nowrap;&quot;&gt;Name= Ahmed Ali&lt;/span&gt;&lt;br style=&quot;font-size: 14px; text-wrap-mode: nowrap; padding: 0px; margin: 0px;&quot;&gt;&lt;span style=&quot;font-size: 14px; text-wrap-mode: nowrap;&quot;&gt;Password= ******&lt;/span&gt;&lt;br style=&quot;font-size: 14px; text-wrap-mode: nowrap; padding: 0px; margin: 0px;&quot;&gt;&lt;span style=&quot;font-size: 14px; text-wrap-mode: nowrap;&quot;&gt;isLoggedin= True&lt;/span&gt;" style="text;strokeColor=none;fillColor=none;align=left;verticalAlign=top;spacingLeft=4;spacingRight=4;overflow=hidden;rotatable=0;points=[[0,0.5],[1,0.5]];portConstraint=eastwest;whiteSpace=wrap;html=1;" parent="uRqw4r4FYVtMjygdQ8Fz-28" vertex="1">
          <mxGeometry y="26" width="150" height="94" as="geometry" />
        </mxCell>
        <mxCell id="uRqw4r4FYVtMjygdQ8Fz-32" value="&lt;font style=&quot;font-size: 14px;&quot;&gt;add&lt;/font&gt;" style="text;html=1;align=center;verticalAlign=middle;resizable=0;points=[];autosize=1;strokeColor=none;fillColor=none;" parent="1" vertex="1">
          <mxGeometry x="425" y="368" width="50" height="30" as="geometry" />
        </mxCell>
        <mxCell id="uRqw4r4FYVtMjygdQ8Fz-33" value="&lt;font style=&quot;font-size: 14px;&quot;&gt;:Category&lt;/font&gt;" style="swimlane;fontStyle=0;childLayout=stackLayout;horizontal=1;startSize=26;fillColor=none;horizontalStack=0;resizeParent=1;resizeParentMax=0;resizeLast=0;collapsible=1;marginBottom=0;whiteSpace=wrap;html=1;" parent="1" vertex="1">
          <mxGeometry x="668" y="207" width="140" height="52" as="geometry" />
        </mxCell>
        <mxCell id="uRqw4r4FYVtMjygdQ8Fz-36" value="&lt;font style=&quot;font-size: 14px;&quot;&gt;Categorytype=&quot;&quot;&lt;/font&gt;" style="text;strokeColor=none;fillColor=none;align=left;verticalAlign=top;spacingLeft=4;spacingRight=4;overflow=hidden;rotatable=0;points=[[0,0.5],[1,0.5]];portConstraint=eastwest;whiteSpace=wrap;html=1;" parent="uRqw4r4FYVtMjygdQ8Fz-33" vertex="1">
          <mxGeometry y="26" width="140" height="26" as="geometry" />
        </mxCell>
        <mxCell id="uRqw4r4FYVtMjygdQ8Fz-42" value="&lt;font style=&quot;font-size: 14px;&quot;&gt;:Location&lt;/font&gt;" style="swimlane;fontStyle=0;childLayout=stackLayout;horizontal=1;startSize=26;fillColor=none;horizontalStack=0;resizeParent=1;resizeParentMax=0;resizeLast=0;collapsible=1;marginBottom=0;whiteSpace=wrap;html=1;" parent="1" vertex="1">
          <mxGeometry x="600" y="420" width="140" height="100" as="geometry" />
        </mxCell>
        <mxCell id="uRqw4r4FYVtMjygdQ8Fz-43" value="&lt;font style=&quot;font-size: 14px;&quot;&gt;&lt;span style=&quot;text-wrap-mode: nowrap;&quot;&gt;Area= &quot;&quot;&lt;/span&gt;&lt;br style=&quot;padding: 0px; margin: 0px; text-wrap-mode: nowrap;&quot;&gt;&lt;span style=&quot;text-wrap-mode: nowrap;&quot;&gt;Country name= &quot;&quot;&lt;/span&gt;&lt;/font&gt;&lt;div style=&quot;padding: 0px; margin: 0px; text-wrap-mode: nowrap;&quot;&gt;&lt;font size=&quot;3&quot;&gt;City name= &quot;&quot;&lt;/font&gt;&lt;/div&gt;" style="text;strokeColor=none;fillColor=none;align=left;verticalAlign=top;spacingLeft=4;spacingRight=4;overflow=hidden;rotatable=0;points=[[0,0.5],[1,0.5]];portConstraint=eastwest;whiteSpace=wrap;html=1;" parent="uRqw4r4FYVtMjygdQ8Fz-42" vertex="1">
          <mxGeometry y="26" width="140" height="74" as="geometry" />
        </mxCell>
        <mxCell id="uRqw4r4FYVtMjygdQ8Fz-46" value="" style="endArrow=diamondThin;endFill=0;endSize=24;html=1;rounded=0;exitX=0;exitY=0.5;exitDx=0;exitDy=0;entryX=1.004;entryY=0.628;entryDx=0;entryDy=0;entryPerimeter=0;" parent="1" source="uRqw4r4FYVtMjygdQ8Fz-43" target="uRqw4r4FYVtMjygdQ8Fz-29" edge="1">
          <mxGeometry width="160" relative="1" as="geometry">
            <mxPoint x="599.8599999999999" y="491.4679999999999" as="sourcePoint" />
            <mxPoint x="380" y="489.99909090909097" as="targetPoint" />
            <Array as="points" />
          </mxGeometry>
        </mxCell>
        <mxCell id="uRqw4r4FYVtMjygdQ8Fz-47" value="&lt;font style=&quot;font-size: 14px;&quot;&gt;lives in&lt;/font&gt;" style="text;html=1;align=center;verticalAlign=middle;resizable=0;points=[];autosize=1;strokeColor=none;fillColor=none;" parent="1" vertex="1">
          <mxGeometry x="460" y="455" width="70" height="30" as="geometry" />
        </mxCell>
        <mxCell id="uRqw4r4FYVtMjygdQ8Fz-49" value="1" style="text;html=1;align=center;verticalAlign=middle;resizable=0;points=[];autosize=1;strokeColor=none;fillColor=none;" parent="1" vertex="1">
          <mxGeometry x="570" y="485" width="30" height="30" as="geometry" />
        </mxCell>
        <mxCell id="uRqw4r4FYVtMjygdQ8Fz-50" value="*" style="text;html=1;align=center;verticalAlign=middle;resizable=0;points=[];autosize=1;strokeColor=none;fillColor=none;" parent="1" vertex="1">
          <mxGeometry x="390" y="485" width="30" height="30" as="geometry" />
        </mxCell>
        <mxCell id="uRqw4r4FYVtMjygdQ8Fz-51" value="" style="endArrow=none;html=1;rounded=0;" parent="1" edge="1">
          <mxGeometry width="50" height="50" relative="1" as="geometry">
            <mxPoint x="50" y="590" as="sourcePoint" />
            <mxPoint x="1140" y="590" as="targetPoint" />
          </mxGeometry>
        </mxCell>
        <mxCell id="uRqw4r4FYVtMjygdQ8Fz-52" value="&lt;font style=&quot;font-size: 18px;&quot;&gt;Postconditions&lt;/font&gt;" style="text;html=1;align=center;verticalAlign=middle;resizable=0;points=[];autosize=1;strokeColor=none;fillColor=none;" parent="1" vertex="1">
          <mxGeometry x="450" y="610" width="140" height="40" as="geometry" />
        </mxCell>
        <mxCell id="uRqw4r4FYVtMjygdQ8Fz-73" value="" style="endArrow=diamondThin;endFill=1;endSize=24;html=1;rounded=0;" parent="1" edge="1">
          <mxGeometry width="160" relative="1" as="geometry">
            <mxPoint x="599" y="730" as="sourcePoint" />
            <mxPoint x="456" y="730" as="targetPoint" />
            <Array as="points">
              <mxPoint x="441" y="730" />
            </Array>
          </mxGeometry>
        </mxCell>
        <mxCell id="uRqw4r4FYVtMjygdQ8Fz-74" value="0..*" style="text;whiteSpace=wrap;html=1;" parent="1" vertex="1">
          <mxGeometry x="485" y="708" width="20" height="30" as="geometry" />
        </mxCell>
        <mxCell id="uRqw4r4FYVtMjygdQ8Fz-75" value="1" style="text;whiteSpace=wrap;html=1;" parent="1" vertex="1">
          <mxGeometry x="573" y="708" width="26" height="30" as="geometry" />
        </mxCell>
        <mxCell id="uRqw4r4FYVtMjygdQ8Fz-76" value="1" style="text;html=1;align=center;verticalAlign=middle;resizable=0;points=[];autosize=1;strokeColor=none;fillColor=none;" parent="1" vertex="1">
          <mxGeometry x="331" y="918" width="30" height="30" as="geometry" />
        </mxCell>
        <mxCell id="uRqw4r4FYVtMjygdQ8Fz-77" value="0..*" style="text;html=1;align=center;verticalAlign=middle;resizable=0;points=[];autosize=1;strokeColor=none;fillColor=none;" parent="1" vertex="1">
          <mxGeometry x="331" y="800" width="40" height="30" as="geometry" />
        </mxCell>
        <mxCell id="uRqw4r4FYVtMjygdQ8Fz-78" value="&lt;font style=&quot;font-size: 14px;&quot;&gt;has&lt;/font&gt;" style="text;html=1;align=center;verticalAlign=middle;resizable=0;points=[];autosize=1;strokeColor=none;fillColor=none;" parent="1" vertex="1">
          <mxGeometry x="516" y="696" width="50" height="30" as="geometry" />
        </mxCell>
        <mxCell id="uRqw4r4FYVtMjygdQ8Fz-79" value="" style="endArrow=diamondThin;endFill=1;endSize=24;html=1;rounded=0;" parent="1" edge="1">
          <mxGeometry width="160" relative="1" as="geometry">
            <mxPoint x="371" y="792" as="sourcePoint" />
            <mxPoint x="311" y="943" as="targetPoint" />
            <Array as="points">
              <mxPoint x="371" y="943" />
            </Array>
          </mxGeometry>
        </mxCell>
        <mxCell id="uRqw4r4FYVtMjygdQ8Fz-80" value="&lt;font style=&quot;font-size: 14px;&quot;&gt;product1:product&lt;/font&gt;" style="swimlane;fontStyle=0;childLayout=stackLayout;horizontal=1;startSize=26;fillColor=none;horizontalStack=0;resizeParent=1;resizeParentMax=0;resizeLast=0;collapsible=1;marginBottom=0;whiteSpace=wrap;html=1;" parent="1" vertex="1">
          <mxGeometry x="210" y="631" width="220" height="160" as="geometry" />
        </mxCell>
        <mxCell id="uRqw4r4FYVtMjygdQ8Fz-81" value="&lt;font style=&quot;font-size: 14px;&quot;&gt;&lt;span style=&quot;text-wrap-mode: nowrap;&quot;&gt;ID= 4&lt;/span&gt;&lt;br style=&quot;padding: 0px; margin: 0px; text-wrap-mode: nowrap;&quot;&gt;&lt;span style=&quot;text-wrap-mode: nowrap;&quot;&gt;Name= &quot;Macbook&quot;&lt;/span&gt;&lt;br style=&quot;padding: 0px; margin: 0px; text-wrap-mode: nowrap;&quot;&gt;&lt;span style=&quot;text-wrap-mode: nowrap;&quot;&gt;Description= &quot;This macbook is for&amp;nbsp;&lt;/span&gt;&lt;/font&gt;&lt;div&gt;&lt;font style=&quot;font-size: 14px;&quot;&gt;&lt;span style=&quot;text-wrap-mode: nowrap;&quot;&gt;giving away&quot;&lt;/span&gt;&lt;br style=&quot;padding: 0px; margin: 0px; text-wrap-mode: nowrap;&quot;&gt;&lt;span style=&quot;text-wrap-mode: nowrap;&quot;&gt;Photo: macbook.png&lt;/span&gt;&lt;/font&gt;&lt;/div&gt;" style="text;strokeColor=none;fillColor=none;align=left;verticalAlign=top;spacingLeft=4;spacingRight=4;overflow=hidden;rotatable=0;points=[[0,0.5],[1,0.5]];portConstraint=eastwest;whiteSpace=wrap;html=1;" parent="uRqw4r4FYVtMjygdQ8Fz-80" vertex="1">
          <mxGeometry y="26" width="220" height="134" as="geometry" />
        </mxCell>
        <mxCell id="uRqw4r4FYVtMjygdQ8Fz-82" value="&lt;font style=&quot;font-size: 14px;&quot;&gt;user1:User&lt;/font&gt;" style="swimlane;fontStyle=0;childLayout=stackLayout;horizontal=1;startSize=26;fillColor=none;horizontalStack=0;resizeParent=1;resizeParentMax=0;resizeLast=0;collapsible=1;marginBottom=0;whiteSpace=wrap;html=1;" parent="1" vertex="1">
          <mxGeometry x="161" y="890" width="150" height="120" as="geometry" />
        </mxCell>
        <mxCell id="uRqw4r4FYVtMjygdQ8Fz-83" value="&lt;span style=&quot;font-size: 14px; text-wrap-mode: nowrap;&quot;&gt;Name= Ahmed Ali&lt;/span&gt;&lt;br style=&quot;font-size: 14px; text-wrap-mode: nowrap; padding: 0px; margin: 0px;&quot;&gt;&lt;span style=&quot;font-size: 14px; text-wrap-mode: nowrap;&quot;&gt;Password= ******&lt;/span&gt;&lt;br style=&quot;font-size: 14px; text-wrap-mode: nowrap; padding: 0px; margin: 0px;&quot;&gt;&lt;span style=&quot;font-size: 14px; text-wrap-mode: nowrap;&quot;&gt;isLoggedin= True&lt;/span&gt;" style="text;strokeColor=none;fillColor=none;align=left;verticalAlign=top;spacingLeft=4;spacingRight=4;overflow=hidden;rotatable=0;points=[[0,0.5],[1,0.5]];portConstraint=eastwest;whiteSpace=wrap;html=1;" parent="uRqw4r4FYVtMjygdQ8Fz-82" vertex="1">
          <mxGeometry y="26" width="150" height="94" as="geometry" />
        </mxCell>
        <mxCell id="uRqw4r4FYVtMjygdQ8Fz-84" value="&lt;font style=&quot;font-size: 14px;&quot;&gt;add&lt;/font&gt;" style="text;html=1;align=center;verticalAlign=middle;resizable=0;points=[];autosize=1;strokeColor=none;fillColor=none;" parent="1" vertex="1">
          <mxGeometry x="356" y="858" width="50" height="30" as="geometry" />
        </mxCell>
        <mxCell id="uRqw4r4FYVtMjygdQ8Fz-85" value="&lt;font style=&quot;font-size: 14px;&quot;&gt;cat1:Category&lt;/font&gt;" style="swimlane;fontStyle=0;childLayout=stackLayout;horizontal=1;startSize=26;fillColor=none;horizontalStack=0;resizeParent=1;resizeParentMax=0;resizeLast=0;collapsible=1;marginBottom=0;whiteSpace=wrap;html=1;" parent="1" vertex="1">
          <mxGeometry x="599" y="697" width="200" height="52" as="geometry" />
        </mxCell>
        <mxCell id="uRqw4r4FYVtMjygdQ8Fz-86" value="&lt;font style=&quot;font-size: 14px;&quot;&gt;Categorytype=&quot;electronics&quot;&lt;/font&gt;" style="text;strokeColor=none;fillColor=none;align=left;verticalAlign=top;spacingLeft=4;spacingRight=4;overflow=hidden;rotatable=0;points=[[0,0.5],[1,0.5]];portConstraint=eastwest;whiteSpace=wrap;html=1;" parent="uRqw4r4FYVtMjygdQ8Fz-85" vertex="1">
          <mxGeometry y="26" width="200" height="26" as="geometry" />
        </mxCell>
        <mxCell id="uRqw4r4FYVtMjygdQ8Fz-87" value="&lt;font style=&quot;font-size: 14px;&quot;&gt;L1:Location&lt;/font&gt;" style="swimlane;fontStyle=0;childLayout=stackLayout;horizontal=1;startSize=26;fillColor=none;horizontalStack=0;resizeParent=1;resizeParentMax=0;resizeLast=0;collapsible=1;marginBottom=0;whiteSpace=wrap;html=1;" parent="1" vertex="1">
          <mxGeometry x="531" y="910" width="180" height="100" as="geometry" />
        </mxCell>
        <mxCell id="uRqw4r4FYVtMjygdQ8Fz-88" value="&lt;font style=&quot;font-size: 14px;&quot;&gt;&lt;span style=&quot;text-wrap-mode: nowrap;&quot;&gt;Area= &quot;sheikh zayed&quot;&lt;/span&gt;&lt;br style=&quot;padding: 0px; margin: 0px; text-wrap-mode: nowrap;&quot;&gt;&lt;span style=&quot;text-wrap-mode: nowrap;&quot;&gt;Country name= &quot;egypt&quot;&lt;/span&gt;&lt;/font&gt;&lt;div style=&quot;padding: 0px; margin: 0px; text-wrap-mode: nowrap;&quot;&gt;&lt;font size=&quot;3&quot;&gt;City name= &quot;Giza&quot;&lt;/font&gt;&lt;/div&gt;" style="text;strokeColor=none;fillColor=none;align=left;verticalAlign=top;spacingLeft=4;spacingRight=4;overflow=hidden;rotatable=0;points=[[0,0.5],[1,0.5]];portConstraint=eastwest;whiteSpace=wrap;html=1;" parent="uRqw4r4FYVtMjygdQ8Fz-87" vertex="1">
          <mxGeometry y="26" width="180" height="74" as="geometry" />
        </mxCell>
        <mxCell id="uRqw4r4FYVtMjygdQ8Fz-89" value="" style="endArrow=diamondThin;endFill=0;endSize=24;html=1;rounded=0;exitX=0;exitY=0.5;exitDx=0;exitDy=0;entryX=1.004;entryY=0.628;entryDx=0;entryDy=0;entryPerimeter=0;" parent="1" source="uRqw4r4FYVtMjygdQ8Fz-88" target="uRqw4r4FYVtMjygdQ8Fz-83" edge="1">
          <mxGeometry width="160" relative="1" as="geometry">
            <mxPoint x="530.8599999999999" y="981.4679999999998" as="sourcePoint" />
            <mxPoint x="311" y="979.9990909090909" as="targetPoint" />
            <Array as="points" />
          </mxGeometry>
        </mxCell>
        <mxCell id="uRqw4r4FYVtMjygdQ8Fz-90" value="&lt;font style=&quot;font-size: 14px;&quot;&gt;lives in&lt;/font&gt;" style="text;html=1;align=center;verticalAlign=middle;resizable=0;points=[];autosize=1;strokeColor=none;fillColor=none;" parent="1" vertex="1">
          <mxGeometry x="391" y="945" width="70" height="30" as="geometry" />
        </mxCell>
        <mxCell id="uRqw4r4FYVtMjygdQ8Fz-91" value="1" style="text;html=1;align=center;verticalAlign=middle;resizable=0;points=[];autosize=1;strokeColor=none;fillColor=none;" parent="1" vertex="1">
          <mxGeometry x="501" y="975" width="30" height="30" as="geometry" />
        </mxCell>
        <mxCell id="uRqw4r4FYVtMjygdQ8Fz-92" value="*" style="text;html=1;align=center;verticalAlign=middle;resizable=0;points=[];autosize=1;strokeColor=none;fillColor=none;" parent="1" vertex="1">
          <mxGeometry x="321" y="975" width="30" height="30" as="geometry" />
        </mxCell>
      </root>
    </mxGraphModel>
  </diagram>
</mxfile>
